<svg width="14" height="16" viewBox="0 0 14 16" fill="none" xmlns="http://www.w3.org/2000/svg">
<path fill-rule="evenodd" clip-rule="evenodd" d="M9.39501 0.552994C9.33162 0.42603 9.24194 0.314009 9.13193 0.224377C9.02191 0.134745 8.89408 0.0695548 8.75692 0.033138C8.61977 -0.00327871 8.47644 -0.0100875 8.33645 0.0131641C8.19646 0.0364156 8.06302 0.0891949 7.945 0.167995C7.60001 0.397995 7.33101 0.725995 7.12301 1.04799C6.90901 1.37799 6.72001 1.76099 6.55301 2.16399C6.21901 2.96799 5.93901 3.93199 5.71301 4.89799C5.43969 6.07849 5.23501 7.27382 5.10001 8.47799C4.69314 8.2157 4.36622 7.84658 4.15501 7.411C3.82701 6.731 3.757 5.87699 3.757 4.75699C3.75696 4.55924 3.69829 4.36595 3.58841 4.20154C3.47852 4.03713 3.32236 3.90899 3.13966 3.83332C2.95696 3.75765 2.75593 3.73784 2.56197 3.77641C2.36802 3.81498 2.18986 3.91019 2.05001 4.04999C1.39917 4.69943 0.883032 5.47104 0.531232 6.3205C0.179433 7.16997 -0.00109811 8.08056 5.02513e-06 8.99999C8.80858e-05 10.1511 0.284051 11.2845 0.826743 12.2996C1.36944 13.3148 2.15411 14.1804 3.11125 14.8199C4.0684 15.4594 5.16849 15.853 6.31407 15.9658C7.45965 16.0786 8.61537 15.9071 9.67886 15.4666C10.7423 15.0261 11.6808 14.3301 12.4111 13.4403C13.1413 12.5504 13.6409 11.4943 13.8655 10.3653C14.0901 9.23626 14.0328 8.0693 13.6987 6.96774C13.3645 5.86617 12.7639 4.864 11.95 4.04999C11.358 3.45899 10.97 3.06499 10.602 2.58299C10.239 2.10699 9.87801 1.51999 9.39501 0.552994ZM9.12 13.12C8.70046 13.539 8.16615 13.8243 7.58455 13.9399C7.00295 14.0554 6.40016 13.996 5.85231 13.7691C5.30446 13.5423 4.83612 13.1582 4.50644 12.6653C4.17676 12.1725 4.00053 11.593 4.00001 11C4.00001 11 4.87901 11.5 6.50001 11.5C6.50001 10.5 7.00001 7.49999 7.75001 6.99999C8.25001 7.99999 8.53601 8.29299 9.12101 8.87899C9.40004 9.15718 9.62135 9.48777 9.7722 9.85176C9.92305 10.2158 10.0005 10.606 10 11C10.0005 11.394 9.92305 11.7842 9.7722 12.1482C9.62135 12.5122 9.40004 12.8428 9.12101 13.121L9.12 13.12Z" fill="#F76659"/>
</svg>
