<svg width="9" height="9" viewBox="0 0 9 9" fill="none" xmlns="http://www.w3.org/2000/svg">
<path d="M4.9585 1.29168C4.9585 1.03855 4.75329 0.833344 4.50016 0.833344C4.24703 0.833344 4.04183 1.03855 4.04183 1.29168V4.04168H1.29183C1.0387 4.04168 0.833496 4.24688 0.833496 4.50001C0.833496 4.75314 1.0387 4.95834 1.29183 4.95834H4.04183V7.70834C4.04183 7.96147 4.24703 8.16668 4.50016 8.16668C4.75329 8.16668 4.9585 7.96147 4.9585 7.70834V4.95834H7.7085C7.96163 4.95834 8.16683 4.75314 8.16683 4.50001C8.16683 4.24688 7.96163 4.04168 7.7085 4.04168H4.9585V1.29168Z" fill=" #191D23"/>
</svg>
