<svg width="11" height="10" viewBox="0 0 11 10" fill="none" xmlns="http://www.w3.org/2000/svg">
<path d="M0.826605 1.25883L9.99287 0.847871C10.0855 0.843661 10.1774 0.865756 10.258 0.911601C10.3386 0.957446 10.4045 1.02517 10.4482 1.10693C10.492 1.18869 10.5116 1.28116 10.505 1.37364C10.4983 1.46611 10.4656 1.55482 10.4107 1.62949L4.97703 9.02305C4.92136 9.09889 4.84507 9.15715 4.75724 9.19089C4.66941 9.22462 4.57373 9.23242 4.4816 9.21334C4.38946 9.19426 4.30475 9.14912 4.23753 9.08328C4.17032 9.01744 4.12343 8.93368 4.10245 8.84196L3.40154 5.77409C3.39294 5.7365 3.39559 5.69721 3.40917 5.66111C3.42275 5.62502 3.44666 5.59372 3.4779 5.57112L6.75841 3.19964C6.77207 3.18963 6.78291 3.17626 6.78988 3.16083C6.79685 3.1454 6.79971 3.12842 6.79818 3.11156L6.79294 3.08674C6.78533 3.06594 6.77091 3.04832 6.75203 3.03674C6.73314 3.02516 6.7109 3.02031 6.68891 3.02297L6.66708 3.02796L2.87628 4.4365C2.84016 4.44983 2.80092 4.45225 2.76343 4.44346C2.72594 4.43467 2.69186 4.41506 2.66543 4.38706L0.491525 2.08699C0.426813 2.01862 0.383117 1.93309 0.365641 1.84058C0.348166 1.74808 0.357647 1.65251 0.392956 1.56524C0.428264 1.47797 0.487912 1.40269 0.564796 1.34837C0.641679 1.29404 0.732557 1.26296 0.826605 1.25883Z" fill=" #333333"/>
</svg>
